<svg width="22" height="21" fill="none" xmlns="http://www.w3.org/2000/svg"><path d="M14.507 11.14v.08l.078.017c.721.164 1.25.768 1.25 1.476a.315.315 0 01-.63 0c0-.504-.469-.89-1.013-.89-.545 0-1.013.386-1.013.89s.468.89 1.013.89c.913 0 1.643.689 1.643 1.52 0 .709-.529 1.312-1.25 1.476l-.078.018v.26a.315.315 0 11-.63 0v-.26l-.078-.018c-.722-.164-1.25-.768-1.25-1.476a.315.315 0 01.63 0c0 .505.468.89 1.013.89.544 0 1.013-.386 1.013-.89s-.469-.89-1.013-.89c-.913 0-1.643-.689-1.643-1.52 0-.708.528-1.312 1.25-1.476l.078-.018v-.296a.315.315 0 01.63 0v.216zM16.485 9.17h0a5.308 5.308 0 012.168 1.918 5.306 5.306 0 01.218 5.34l.088.048-.088-.047a.315.315 0 01-.426.13h0a.315.315 0 01-.13-.426h0a4.673 4.673 0 00.544-2.188 4.693 4.693 0 00-2.647-4.208.315.315 0 01-.147-.42h0a.315.315 0 01.42-.147zM14.816 9.28h0a.315.315 0 110-.63h.028a.315.315 0 01-.002.63h0-.001 0-.025zM10.072 11.757h0a4.674 4.674 0 00-.543 2.188 4.693 4.693 0 002.646 4.207l.043-.09-.043.09a.315.315 0 01-.273.568h0A5.308 5.308 0 019.734 16.8a5.306 5.306 0 01-.218-5.34h0a.315.315 0 01.426-.13h0a.315.315 0 01.13.426zM13.57 18.61v0h.001a.315.315 0 010 .63h-.027s0 0 0 0a.315.315 0 01-.314-.317h0c.001-.173.142-.313.317-.313h.024z" fill="#fff" stroke="#fff" stroke-width=".2"/><path d="M15.986 7.184l.019.045.047.013c2.936.814 5.097 3.511 5.097 6.703a6.963 6.963 0 01-6.955 6.955 6.937 6.937 0 01-5.08-2.21l-.03-.031H4.152c-.998 0-1.81-.812-1.81-1.81 0-.572.268-1.083.685-1.415l.098-.078-.098-.079a1.806 1.806 0 010-2.831l.098-.078-.098-.079a1.806 1.806 0 010-2.831l.098-.079-.098-.078a1.806 1.806 0 01-.685-1.416c0-.997.812-1.809 1.81-1.809h1.272l-.108-.156a1.798 1.798 0 010-2.045l.108-.157H1.909C.912 3.718.1 2.907.1 1.91.1.912.912.1 1.91.1h10.167a1.811 1.811 0 011.491 2.831l-.107.157h3.513c.998 0 1.81.812 1.81 1.81 0 .997-.812 1.808-1.81 1.808h-1.27l.107.157c.069.1.127.207.175.321zm-1.205-.17l.052-.19a1.178 1.178 0 00-.515-.118H4.15a1.18 1.18 0 000 2.358h5.093l.029-.029a6.933 6.933 0 015.509-2.02zm-6.208 2.84l.116-.16H4.15a1.18 1.18 0 000 2.358H7.5l.021-.071a6.936 6.936 0 011.052-2.128zm-1.24 2.945l.02-.116H4.15a1.18 1.18 0 000 2.358H7.324l-.016-.114a6.984 6.984 0 01.025-2.128zm.142 2.946l-.02-.074H4.15a1.18 1.18 0 000 2.358H8.564l-.107-.157a6.927 6.927 0 01-.982-2.127zM18.153 4.897a1.18 1.18 0 00-1.179-1.179H6.806a1.18 1.18 0 000 2.358h10.168a1.18 1.18 0 001.18-1.179zM.73 1.91c0 .65.529 1.18 1.18 1.18h10.167a1.18 1.18 0 000-2.359H1.91C1.26.73.73 1.259.73 1.91zm7.138 12.036a6.332 6.332 0 006.326 6.325 6.332 6.332 0 006.325-6.325 6.332 6.332 0 00-6.325-6.326 6.332 6.332 0 00-6.326 6.326z" fill="#fff" stroke="#fff" stroke-width=".2"/></svg>